<?xml version="1.0" standalone="no"?>
<!DOCTYPE svg PUBLIC "-//W3C//DTD SVG 20010904//EN"
 "http://www.w3.org/TR/2001/REC-SVG-20010904/DTD/svg10.dtd">
<svg version="1.0" xmlns="http://www.w3.org/2000/svg"
 width="4784.000000pt" height="872.000000pt" viewBox="0 0 4784.000000 872.000000"
 preserveAspectRatio="xMidYMid meet">

<g transform="translate(0.000000,872.000000) scale(0.100000,-0.100000)"
fill="#000000" stroke="none">
<path d="M7855 7174 c-229 -23 -364 -44 -472 -73 l-41 -11 -27 -113 c-183
-776 -378 -1797 -469 -2452 -166 -1191 -147 -1909 56 -2140 52 -60 100 -79
193 -78 266 4 511 198 764 605 36 57 130 220 209 363 79 143 167 298 195 345
182 306 356 485 537 551 l65 24 1025 0 c941 0 1029 -1 1080 -17 189 -59 376
-254 582 -608 31 -52 107 -187 168 -300 253 -460 398 -664 568 -801 132 -107
265 -159 406 -161 89 -1 129 16 186 79 167 180 211 706 129 1543 -74 767 -265
1846 -527 2990 l-38 165 -37 12 c-53 18 -216 49 -332 64 -128 17 -555 17 -700
1 -99 -12 -245 -34 -317 -48 -91 -18 -172 -230 -212 -557 -8 -65 -16 -120 -18
-122 -2 -1 -73 1 -158 6 -437 24 -1478 20 -1675 -7 l-40 -6 -22 159 c-38 268
-98 457 -163 505 -54 39 -357 77 -660 82 -118 2 -233 2 -255 0z m3896 -1215
c151 -51 203 -230 102 -349 -83 -97 -214 -107 -310 -25 -81 69 -98 200 -37
288 53 76 160 114 245 86z m-3470 -49 c17 -10 19 -22 19 -132 l0 -120 -82 -85
c-46 -47 -91 -89 -102 -95 -16 -9 -33 4 -112 83 l-94 94 0 122 c0 106 2 123
18 132 23 14 327 14 353 1z m3112 -326 c79 -40 121 -108 122 -199 0 -115 -82
-205 -195 -213 -71 -5 -120 10 -167 51 -75 66 -94 171 -48 263 53 107 183 151
288 98z m784 -10 c86 -50 127 -153 98 -249 -56 -190 -315 -210 -407 -31 -30
59 -23 159 16 215 68 98 191 125 293 65z m-4260 -97 l98 -97 -101 -100 -101
-100 -107 0 c-59 0 -116 5 -127 10 -18 10 -19 23 -19 185 0 219 -8 208 146
203 l114 -3 97 -98z m704 93 c18 -10 19 -23 19 -194 0 -158 -2 -185 -16 -190
-9 -3 -65 -6 -126 -6 l-110 0 -94 93 c-52 51 -94 97 -94 103 0 6 44 54 99 107
l98 97 102 0 c56 0 111 -5 122 -10z m-413 -374 l92 -93 0 -115 c0 -86 -4 -118
-14 -127 -9 -8 -69 -11 -192 -9 l-179 3 -3 124 -3 125 93 93 c51 51 97 93 103
93 6 0 53 -42 103 -94z m3567 22 c131 -67 169 -211 89 -329 -53 -77 -173 -111
-262 -73 -186 77 -172 348 22 410 43 14 116 10 151 -8z"/>
</g>
</svg>
